<?xml version="1.0" standalone="no"?>
<!DOCTYPE svg PUBLIC "-//W3C//DTD SVG 20010904//EN"
 "http://www.w3.org/TR/2001/REC-SVG-20010904/DTD/svg10.dtd">
<svg version="1.0" xmlns="http://www.w3.org/2000/svg"
 width="128.000000pt" height="128.000000pt" viewBox="0 0 128.000000 128.000000"
 preserveAspectRatio="xMidYMid meet">

<g transform="translate(0.000000,128.000000) scale(0.100000,-0.100000)"
fill="currentColor" stroke="none">
<path d="M637 873 c-4 -3 -7 -114 -7 -245 l0 -238 -95 0 -95 0 0 -100 0 -100
205 0 205 0 0 100 0 99 -92 3 -93 3 -3 158 -3 157 96 0 95 0 0 70 0 70 -95 0
c-78 0 -95 3 -95 15 0 16 -12 20 -23 8z"/>
<path d="M180 575 c0 -30 5 -55 10 -55 6 0 10 -63 10 -168 0 -117 4 -172 12
-180 8 -8 46 -12 105 -12 l93 0 0 180 c0 153 2 180 15 180 12 0 15 13 15 55 0
48 -2 55 -20 55 -11 0 -20 -7 -20 -15 0 -10 -11 -15 -35 -15 -24 0 -35 5 -35
15 0 9 -9 15 -25 15 -16 0 -25 -6 -25 -15 0 -10 -10 -15 -30 -15 -20 0 -30 5
-30 15 0 8 -9 15 -20 15 -18 0 -20 -7 -20 -55z"/>
<path d="M860 576 c0 -39 4 -55 15 -60 13 -4 15 -34 15 -181 l0 -175 83 0
c119 0 117 -3 117 198 0 137 2 162 15 162 12 0 15 13 15 55 0 48 -2 55 -20 55
-11 0 -20 -7 -20 -15 0 -10 -11 -15 -35 -15 -24 0 -35 5 -35 15 0 9 -9 15 -25
15 -16 0 -25 -6 -25 -15 0 -10 -10 -15 -30 -15 -20 0 -30 5 -30 15 0 8 -9 15
-20 15 -18 0 -20 -7 -20 -54z"/>
</g>
</svg>
